<svg width="53" height="48" viewBox="0 0 53 48" fill="none" xmlns="http://www.w3.org/2000/svg">
<path d="M29.3171 19.9017L40.4041 8.40287L39.7743 8.18359L27.8477 19.78L28.1498 20.5207L29.3171 19.9017Z" fill="#171C1B"/>
<path d="M19.0258 19.9017L7.9375 8.40287L8.5686 8.18359L20.4939 19.78L20.1931 20.5207L19.0258 19.9017Z" fill="#171C1B"/>
<path d="M19.0258 28.6737L7.9375 40.1725L8.5686 40.3918L20.4939 28.7954L20.1931 28.0547L19.0258 28.6737Z" fill="#171C1B"/>
<path d="M29.3171 28.6737L40.4041 40.1725L39.7743 40.3918L27.8477 28.7954L28.1498 28.0547L29.3171 28.6737Z" fill="#171C1B"/>
<path d="M28.4726 19.0547H19.9622C19.4955 19.0547 19.1172 19.433 19.1172 19.8997V28.58C19.1172 29.0466 19.4955 29.425 19.9622 29.425H28.4726C28.9393 29.425 29.3177 29.0466 29.3177 28.58V19.8997C29.3177 19.433 28.9393 19.0547 28.4726 19.0547Z" fill="#303639"/>
<path d="M7.66731 8.73501C8.25806 8.73501 8.73696 8.25611 8.73696 7.66536C8.73696 7.0746 8.25806 6.5957 7.66731 6.5957C7.07656 6.5957 6.59766 7.0746 6.59766 7.66536C6.59766 8.25611 7.07656 8.73501 7.66731 8.73501Z" fill="#171C1B"/>
<path d="M40.6009 8.73501C41.1917 8.73501 41.6706 8.25611 41.6706 7.66536C41.6706 7.0746 41.1917 6.5957 40.6009 6.5957C40.0102 6.5957 39.5312 7.0746 39.5312 7.66536C39.5312 8.25611 40.0102 8.73501 40.6009 8.73501Z" fill="#171C1B"/>
<path d="M7.66731 41.7604C8.25806 41.7604 8.73696 41.2815 8.73696 40.6907C8.73696 40.1 8.25806 39.6211 7.66731 39.6211C7.07656 39.6211 6.59766 40.1 6.59766 40.6907C6.59766 41.2815 7.07656 41.7604 7.66731 41.7604Z" fill="#171C1B"/>
<path d="M40.6009 41.7604C41.1917 41.7604 41.6706 41.2815 41.6706 40.6907C41.6706 40.1 41.1917 39.6211 40.6009 39.6211C40.0102 39.6211 39.5312 40.1 39.5312 40.6907C39.5312 41.2815 40.0102 41.7604 40.6009 41.7604Z" fill="#171C1B"/>
<path d="M7.74149 14.4843C4.02445 14.4843 1 11.4599 1 7.74149C1 4.02311 4.02445 1 7.74149 1C11.4585 1 14.4843 4.02445 14.4843 7.74149C14.4843 11.4585 11.4599 14.483 7.74149 14.483V14.4843ZM7.74149 1.13371C4.09798 1.13371 1.13371 4.09798 1.13371 7.74149C1.13371 11.385 4.09798 14.3493 7.74149 14.3493C11.385 14.3493 14.3506 11.385 14.3506 7.74149C14.3506 4.09798 11.3863 1.13371 7.74149 1.13371Z" stroke="black" stroke-width="0.5"/>
<path d="M40.7376 14.4843C37.0205 14.4843 33.9961 11.4599 33.9961 7.74283C33.9961 4.02578 37.0205 1 40.7376 1C44.4546 1 47.4804 4.02445 47.4804 7.74149C47.4804 11.4585 44.456 14.483 40.7376 14.483V14.4843ZM40.7376 1.13371C37.0941 1.13371 34.1298 4.09798 34.1298 7.74149C34.1298 11.385 37.0941 14.3493 40.7376 14.3493C44.3811 14.3493 47.3467 11.385 47.3467 7.74149C47.3467 4.09798 44.3811 1.13371 40.7376 1.13371Z" stroke="black" stroke-width="0.5"/>
<path d="M51.0808 6.14023C51.5368 7.10961 51.7922 8.18996 51.7922 9.33047C51.7922 12.6665 49.6087 15.501 46.5977 16.4838C46.6097 16.5333 46.6177 16.5841 46.6257 16.6349C49.7077 15.6374 51.9446 12.7413 51.9446 9.33047C51.9446 8.17926 51.6879 7.08688 51.2319 6.10547C51.1825 6.12018 51.1317 6.13087 51.0808 6.14157V6.14023Z" stroke="#171C1B" stroke-width="0.5"/>
<path d="M49.4898 9.70508C49.1328 11.3965 48.2129 12.8659 46.9453 13.9222C46.9774 13.9623 47.0055 14.0037 47.0349 14.0452C48.3345 12.9648 49.2772 11.4593 49.6408 9.72647C49.59 9.72112 49.5392 9.71444 49.4898 9.70508Z" stroke="#171C1B" stroke-width="0.5"/>
<path d="M7.74149 47.1353C4.02445 47.1353 1 44.1109 1 40.3938C1 36.6768 4.02445 33.6523 7.74149 33.6523C11.4585 33.6523 14.4843 36.6768 14.4843 40.3938C14.4843 44.1109 11.4599 47.1353 7.74149 47.1353ZM7.74149 33.7847C4.09798 33.7847 1.13371 36.749 1.13371 40.3925C1.13371 44.036 4.09798 47.0003 7.74149 47.0003C11.385 47.0003 14.3506 44.036 14.3506 40.3925C14.3506 36.749 11.3863 33.7847 7.74149 33.7847Z" stroke="black" stroke-width="0.5"/>
<path d="M40.7376 47.1353C37.0205 47.1353 33.9961 44.1109 33.9961 40.3938C33.9961 36.6768 37.0205 33.6523 40.7376 33.6523C44.4546 33.6523 47.4804 36.6768 47.4804 40.3938C47.4804 44.1109 44.456 47.1353 40.7376 47.1353ZM40.7376 33.7847C37.0941 33.7847 34.1298 36.749 34.1298 40.3925C34.1298 44.036 37.0941 47.0003 40.7376 47.0003C44.3811 47.0003 47.3467 44.036 47.3467 40.3925C47.3467 36.749 44.3824 33.7847 40.7376 33.7847Z" stroke="black" stroke-width="0.5"/>
</svg>
