<svg width="16" height="16" viewBox="0 0 16 16" fill="none" xmlns="http://www.w3.org/2000/svg">
<path d="M6.2159 8.85429H8.2759V13.6543C8.2759 14.361 9.1559 14.6943 9.62256 14.161L14.6692 8.42762C15.1092 7.92762 14.7559 7.14762 14.0892 7.14762H12.0292V2.34762C12.0292 1.64096 11.1492 1.30762 10.6826 1.84096L5.6359 7.57429C5.20256 8.07429 5.5559 8.85429 6.2159 8.85429Z" fill="white"/>
<path d="M5.66667 3.16602H1C0.726667 3.16602 0.5 2.93935 0.5 2.66602C0.5 2.39268 0.726667 2.16602 1 2.16602H5.66667C5.94 2.16602 6.16667 2.39268 6.16667 2.66602C6.16667 2.93935 5.94 3.16602 5.66667 3.16602Z" fill="white"/>
<path d="M5 13.834H1C0.726667 13.834 0.5 13.6073 0.5 13.334C0.5 13.0607 0.726667 12.834 1 12.834H5C5.27333 12.834 5.5 13.0607 5.5 13.334C5.5 13.6073 5.27333 13.834 5 13.834Z" fill="white"/>
<path d="M3 8.5H1C0.726667 8.5 0.5 8.27333 0.5 8C0.5 7.72667 0.726667 7.5 1 7.5H3C3.27333 7.5 3.5 7.72667 3.5 8C3.5 8.27333 3.27333 8.5 3 8.5Z" fill="white"/>
</svg>
