<svg width="48" height="47" viewBox="0 0 48 47" fill="none" xmlns="http://www.w3.org/2000/svg">
<rect x="0.609375" width="47" height="47" rx="7" fill="#009169"/>
<path d="M31.0909 33.7067C30.8732 33.7067 30.697 33.8831 30.697 34.1007V35.0303C30.697 35.682 30.1668 36.2121 29.5152 36.2121H12.9697C12.318 36.2121 11.7879 35.682 11.7879 35.0303V16.7752C11.7879 16.6871 11.8003 16.6003 11.8197 16.5152H14.5455C15.6315 16.5152 16.5152 15.6315 16.5152 14.5455V11.8197C16.6003 11.8003 16.6871 11.7879 16.7752 11.7879H29.5152C30.1668 11.7879 30.697 12.318 30.697 12.9697V18.4848C30.697 18.7024 30.8732 18.8788 31.0909 18.8788C31.3087 18.8788 31.4848 18.7024 31.4848 18.4848V12.9697C31.4848 11.8837 30.6012 11 29.5152 11H16.7752C16.2559 11 15.748 11.21 15.3818 11.5763L11.5763 15.3818C11.21 15.748 11 16.2559 11 16.7752V35.0303C11 36.1163 11.8837 37 12.9697 37H29.5152C30.6012 37 31.4848 36.1163 31.4848 35.0303V34.1007C31.4848 33.8831 31.3087 33.7067 31.0909 33.7067ZM15.7273 12.3449V14.5455C15.7273 15.1971 15.1971 15.7273 14.5455 15.7273H12.3449L15.7273 12.3449Z" fill="#E5F4F0"/>
<path d="M22.4239 34.6361H23.2118C23.4293 34.6361 23.6057 34.4597 23.6057 34.2421C23.6057 34.0246 23.4293 33.8482 23.2118 33.8482H22.4239C21.7722 33.8482 21.2421 33.3181 21.2421 32.6664V31.8785C21.2421 31.0096 20.5352 30.3027 19.6663 30.3027C18.7975 30.3027 18.0906 31.0096 18.0906 31.8785V33.0603C18.0906 33.4948 17.7372 33.8482 17.3027 33.8482C16.8681 33.8482 16.5148 33.4948 16.5148 33.0603V31.8785C16.5148 31.0096 15.8079 30.3027 14.939 30.3027C14.0702 30.3027 13.3633 31.0096 13.3633 31.8785V34.2421C13.3633 34.4597 13.5397 34.6361 13.7572 34.6361C13.9748 34.6361 14.1512 34.4597 14.1512 34.2421V31.8785C14.1512 31.444 14.5045 31.0906 14.939 31.0906C15.3736 31.0906 15.7269 31.444 15.7269 31.8785V33.0603C15.7269 33.9292 16.4338 34.6361 17.3027 34.6361C18.1715 34.6361 18.8784 33.9292 18.8784 33.0603V31.8785C18.8784 31.444 19.2318 31.0906 19.6663 31.0906C20.1008 31.0906 20.4542 31.444 20.4542 31.8785V32.6664C20.4542 33.7524 21.3379 34.6361 22.4239 34.6361Z" fill="#E5F4F0"/>
<path d="M27.939 16.1203C28.8081 16.1203 29.5148 15.4134 29.5148 14.5445C29.5148 13.6756 28.8081 12.9688 27.939 12.9688C27.07 12.9688 26.3633 13.6756 26.3633 14.5445C26.3633 15.4134 27.07 16.1203 27.939 16.1203ZM27.939 13.7566C28.3734 13.7566 28.7269 14.11 28.7269 14.5445C28.7269 14.979 28.3734 15.3324 27.939 15.3324C27.5047 15.3324 27.1512 14.979 27.1512 14.5445C27.1512 14.11 27.5047 13.7566 27.939 13.7566Z" fill="#E5F4F0"/>
<path d="M24.3923 16.909C24.61 16.909 24.7862 16.7326 24.7862 16.515C24.7862 16.2975 24.61 16.1211 24.3923 16.1211H18.0893C17.8717 16.1211 17.6953 16.2975 17.6953 16.515C17.6953 16.7326 17.8717 16.909 18.0893 16.909H24.3923Z" fill="#E5F4F0"/>
<path d="M26.7586 19.6674C26.7586 19.4498 26.5824 19.2734 26.3647 19.2734H17.3041C17.0865 19.2734 16.9102 19.4498 16.9102 19.6674C16.9102 19.8849 17.0865 20.0613 17.3041 20.0613H26.3647C26.5824 20.0613 26.7586 19.8849 26.7586 19.6674Z" fill="#E5F4F0"/>
<path d="M25.1832 22.0307C25.1832 21.8131 25.007 21.6367 24.7893 21.6367H14.9408C14.7233 21.6367 14.5469 21.8131 14.5469 22.0307C14.5469 22.2482 14.7233 22.4246 14.9408 22.4246H24.7893C25.007 22.4246 25.1832 22.2482 25.1832 22.0307Z" fill="#E5F4F0"/>
<path d="M24.3954 24.3939C24.3954 24.1764 24.219 24 24.0014 24H14.9408C14.7233 24 14.5469 24.1764 14.5469 24.3939C14.5469 24.6115 14.7233 24.7879 14.9408 24.7879H24.0014C24.219 24.7879 24.3954 24.6115 24.3954 24.3939Z" fill="#E5F4F0"/>
<path d="M19.2741 27.1512C19.4917 27.1512 19.6681 26.9748 19.6681 26.7572C19.6681 26.5397 19.4917 26.3633 19.2741 26.3633H14.9408C14.7233 26.3633 14.5469 26.5397 14.5469 26.7572C14.5469 26.9748 14.7233 27.1512 14.9408 27.1512H19.2741Z" fill="#E5F4F0"/>
<path d="M31.483 21.2422C29.5279 21.2422 27.9375 22.8328 27.9375 24.7876C27.9375 26.7425 29.5279 28.3331 31.483 28.3331C33.438 28.3331 35.0284 26.7425 35.0284 24.7876C35.0284 22.8328 33.438 21.2422 31.483 21.2422ZM31.483 27.5452C29.9626 27.5452 28.7254 26.3082 28.7254 24.7876C28.7254 23.2671 29.9626 22.0301 31.483 22.0301C33.0033 22.0301 34.2405 23.2671 34.2405 24.7876C34.2405 26.3082 33.0033 27.5452 31.483 27.5452Z" fill="#E5F4F0"/>
<path d="M36.1835 23.6068H36.0812C36.0669 23.6068 36.0581 23.5952 36.0531 23.5848C36.0512 23.5758 36.0488 23.5668 36.0465 23.5577C36.0415 23.5412 36.0423 23.521 36.05 23.5166L36.1473 23.4617C36.5332 23.2342 36.6655 22.7339 36.4412 22.3451L36.0785 21.7209C35.9727 21.5313 35.7992 21.3945 35.5891 21.336C35.3775 21.2764 35.1552 21.3043 34.9655 21.4122L34.8639 21.4699L34.8166 21.4388L34.5446 21.7236L34.8093 21.3974L34.8597 21.308C34.9686 21.1168 34.9959 20.895 34.9367 20.683C34.8778 20.4733 34.7412 20.2996 34.5577 20.1973L33.9264 19.8305C33.5386 19.6068 33.0381 19.7387 32.8081 20.1304L32.7584 20.2179C32.7504 20.2308 32.7308 20.2308 32.7146 20.2262C32.7065 20.2237 32.6973 20.2215 32.6884 20.2198C32.6773 20.2146 32.6657 20.206 32.6657 20.1913V20.0888C32.6657 19.6393 32.2999 19.2734 31.8502 19.2734H31.1177C30.668 19.2734 30.3021 19.6393 30.3021 20.0888V20.1913C30.3021 20.2054 30.2909 20.2142 30.2806 20.2194C30.2713 20.2214 30.2621 20.2235 30.2532 20.2262C30.2367 20.2302 30.2171 20.2312 30.2113 20.221L30.1571 20.1256C29.9297 19.7391 29.43 19.6074 29.0403 19.8311L28.4166 20.1938C28.2266 20.2996 28.09 20.4733 28.0312 20.683C27.9719 20.895 27.9992 21.1168 28.1073 21.3068L28.1585 21.3974C28.1608 21.4009 28.145 21.4393 28.147 21.4428C28.1435 21.4461 28.0966 21.4601 28.0931 21.4636L28.0031 21.4128C27.8126 21.3037 27.5903 21.277 27.3787 21.336C27.1686 21.3945 26.9951 21.5313 26.8928 21.715L26.5258 22.3463C26.3023 22.7339 26.4346 23.2342 26.827 23.4654L26.9132 23.5139C26.9255 23.521 26.9263 23.5412 26.9213 23.5577C26.919 23.5662 26.9171 23.5748 26.9151 23.5841C26.9101 23.5946 26.9013 23.6068 26.8867 23.6068H26.7843C26.3346 23.6068 25.9688 23.9726 25.9688 24.4222V25.155C25.9688 25.6045 26.3346 25.9704 26.7843 25.9704H26.8867C26.9009 25.9704 26.9097 25.9819 26.9147 25.9923C26.9167 26.0014 26.919 26.0104 26.9213 26.0195C26.9263 26.036 26.9255 26.0562 26.9178 26.0606L26.8205 26.1154C26.4346 26.343 26.3023 26.8433 26.5266 27.232L26.8894 27.8562C26.9951 28.0459 27.1686 28.1826 27.3787 28.2411C27.5903 28.3006 27.8127 28.2731 28.0023 28.165L28.1039 28.1072L28.1512 28.1384L28.4232 27.8535L28.1585 28.1798L28.1081 28.2692C27.9992 28.4604 27.9719 28.6822 28.0312 28.8942C28.09 29.1038 28.2266 29.2775 28.4101 29.3799L29.0414 29.7467C29.0669 29.7614 29.0939 29.7705 29.1203 29.7821V33.8492C29.1203 34.0006 29.2072 34.1387 29.3434 34.2043C29.4807 34.2699 29.6419 34.2516 29.7604 34.1568L31.4839 32.778L33.2074 34.1568C33.2786 34.2137 33.3659 34.2431 33.4536 34.2431C33.5117 34.2431 33.5702 34.2302 33.6244 34.2043C33.7606 34.1387 33.8475 34.0006 33.8475 33.8492V29.7821C33.8743 29.7703 33.9017 29.761 33.9276 29.7461L34.5512 29.3833C34.7412 29.2775 34.8778 29.1038 34.9366 28.8942C34.9959 28.6822 34.9686 28.4604 34.8605 28.2704L34.8093 28.1798C34.807 28.1763 34.8228 28.1378 34.8209 28.1344C34.8243 28.1311 34.8712 28.1171 34.8747 28.1136L34.9647 28.1644C35.1556 28.2733 35.3779 28.3 35.5891 28.2411C35.7992 28.1827 35.9727 28.0459 36.075 27.8622L36.442 27.2309C36.6655 26.8433 36.5332 26.343 36.1408 26.1118L36.0546 26.0633C36.0423 26.0562 36.0415 26.036 36.0465 26.0195C36.0488 26.011 36.0508 26.0023 36.0527 25.9931C36.0577 25.9825 36.0665 25.9704 36.0812 25.9704H36.1835C36.6332 25.9704 36.9991 25.6045 36.9991 25.155V24.4222C36.9991 23.9726 36.6332 23.6068 36.1835 23.6068ZM31.7301 31.9659C31.5863 31.8508 31.3816 31.8508 31.2377 31.9659L29.9082 33.0296V29.7113C30.0073 29.6443 30.0949 29.5571 30.1598 29.4468L30.2094 29.3593C30.2175 29.3464 30.2367 29.3462 30.2532 29.351C30.2613 29.3535 30.2706 29.3556 30.2794 29.3574C30.2906 29.3625 30.3021 29.3712 30.3021 29.3858V29.4883C30.3021 29.9379 30.668 30.3037 31.1177 30.3037H31.8502C32.2999 30.3037 32.6657 29.9379 32.6657 29.4883V29.3858C32.6657 29.3718 32.6769 29.3629 32.6873 29.3577C32.6965 29.3558 32.7058 29.3537 32.7146 29.351C32.7308 29.3466 32.7508 29.346 32.7565 29.3562L32.8108 29.4516C32.8746 29.5602 32.9613 29.6462 33.0597 29.7124V33.0296L31.7301 31.9659ZM36.1835 25.1825H36.0812C35.7065 25.1825 35.3875 25.4308 35.2875 25.8006C35.2841 25.8127 35.2814 25.8259 35.2794 25.8396C35.1944 26.1953 35.3471 26.563 35.663 26.7469L35.7472 26.7944C35.7607 26.8021 35.7699 26.8191 35.7603 26.8362L35.3941 27.4663C35.3929 27.4683 35.3544 27.4771 35.3533 27.479L35.2725 27.4334C34.9505 27.239 34.5366 27.2971 34.27 27.5712C33.9918 27.8416 33.9341 28.2556 34.123 28.5672L34.1742 28.6578C34.1746 28.6582 34.1615 28.6982 34.1615 28.6986L33.5325 29.0642C33.5144 29.0758 33.4982 29.0659 33.4928 29.0571L33.4394 28.9634C33.2589 28.653 32.895 28.4999 32.5392 28.5829C32.5245 28.5851 32.5103 28.5881 32.4961 28.592C32.1264 28.692 31.8778 29.0109 31.8778 29.3858L31.8501 29.5159L31.09 29.4884V29.3858C31.09 29.0109 30.8414 28.692 30.4717 28.592C30.4598 28.5887 30.4467 28.586 30.4337 28.5841C30.0755 28.4983 29.7093 28.6516 29.5265 28.9665L29.4777 29.0523C29.47 29.0658 29.4538 29.0754 29.4365 29.0648L28.8064 28.6986C28.804 28.6974 28.7956 28.6589 28.7937 28.6578L28.8387 28.5778C29.0337 28.2556 28.976 27.8416 28.7013 27.575C28.432 27.2973 28.0185 27.2388 27.7053 27.4277L27.6145 27.479C27.6138 27.479 27.5745 27.4663 27.5737 27.4663L27.2083 26.8373C27.1979 26.8191 27.2071 26.8021 27.2141 26.7981L27.3095 26.7442C27.6195 26.5638 27.7719 26.1987 27.6899 25.8446C27.6876 25.8298 27.6845 25.8152 27.6803 25.8006C27.5803 25.4309 27.2614 25.1825 26.8867 25.1825L26.7566 25.155L26.7843 24.3946H26.8867C27.2614 24.3946 27.5803 24.1463 27.6803 23.7766C27.6838 23.7645 27.6865 23.7512 27.6884 23.7376C27.7734 23.3819 27.6207 23.0141 27.3048 22.8302L27.2206 22.7827C27.2071 22.775 27.1979 22.7581 27.2075 22.741L27.5738 22.1108C27.5749 22.1089 27.6134 22.1001 27.6145 22.0981L27.6953 22.1437C28.0173 22.3384 28.4313 22.2801 28.6979 22.006C28.976 21.7356 29.0337 21.3216 28.8448 21.01L28.7937 20.9194C28.7933 20.919 28.8064 20.879 28.8064 20.8786L29.4354 20.513C29.4546 20.5022 29.47 20.5114 29.475 20.5201L29.5285 20.6137C29.7085 20.9242 30.0736 21.0775 30.4287 20.9942C30.4433 20.9921 30.4575 20.989 30.4718 20.9852C30.8415 20.8852 31.09 20.5662 31.09 20.1913L31.1177 20.0613L31.8779 20.0888V20.1913C31.8779 20.5662 32.1264 20.8852 32.4961 20.9852C32.508 20.9884 32.5211 20.9911 32.5342 20.9931C32.8916 21.0781 33.2582 20.9255 33.4413 20.6107L33.4902 20.5249C33.4982 20.5116 33.5148 20.502 33.5313 20.5124L34.1615 20.8786C34.1638 20.8798 34.1722 20.9182 34.1742 20.9194L34.1292 20.9994C33.9341 21.3216 33.9918 21.7355 34.2665 22.0021C34.5358 22.2805 34.9501 22.339 35.2625 22.1495L35.3533 22.0981C35.3541 22.0981 35.3933 22.1108 35.3941 22.1108L35.7596 22.7398C35.7699 22.7581 35.7607 22.775 35.7538 22.7791L35.6584 22.8329C35.3483 23.0134 35.196 23.3784 35.2779 23.7326C35.2802 23.7474 35.2833 23.762 35.2875 23.7766C35.3875 24.1463 35.7065 24.3946 36.0812 24.3946H36.1835C36.1981 24.3946 36.2112 24.4075 36.2112 24.4221L36.1835 25.1825Z" fill="#E5F4F0"/>
</svg>
