<svg width="16" height="16" viewBox="0 0 16 16" fill="none" xmlns="http://www.w3.org/2000/svg">
<path d="M12.4598 7.68654C12.0798 7.58654 11.6331 7.5332 11.0998 7.5332C10.3598 7.5332 10.0865 7.7132 9.70646 7.99987C9.68646 8.0132 9.66646 8.0332 9.64646 8.0532L9.01312 8.72654C8.48646 9.2932 7.51979 9.2932 6.98646 8.72654L6.35312 8.05987C6.33312 8.0332 6.31312 8.0132 6.29312 7.99987C5.90646 7.7132 5.63312 7.5332 4.89979 7.5332C4.36646 7.5332 3.91979 7.57987 3.53979 7.68654C1.95312 8.1132 1.95312 9.3732 1.95312 10.4799V11.0999C1.95312 12.7732 1.95312 14.6665 5.51979 14.6665H10.4798C12.8465 14.6665 14.0465 13.4665 14.0465 11.0999V10.4799C14.0465 9.3732 14.0465 8.1132 12.4598 7.68654Z" fill="#003224"/>
<path d="M9.86198 1.33398H6.14198C3.19531 1.33398 3.19531 2.90065 3.19531 4.28065V6.74732C3.22198 6.73398 3.25531 6.72732 3.28198 6.72065C3.74865 6.59398 4.27531 6.53398 4.90198 6.53398C5.92865 6.53398 6.41531 6.83398 6.89531 7.20065C6.96198 7.24732 7.02865 7.30732 7.08865 7.37398L7.71531 8.03398C7.78198 8.10732 7.88865 8.14732 8.00198 8.14732C8.11531 8.14732 8.22198 8.10732 8.28198 8.04065L8.92198 7.36732C8.97531 7.31398 9.03531 7.25398 9.10198 7.20732C9.59531 6.83398 10.0753 6.53398 11.102 6.53398C11.7286 6.53398 12.2553 6.59398 12.722 6.72065C12.7486 6.72732 12.782 6.73398 12.8086 6.74732V4.28065C12.8086 2.90065 12.8086 1.33398 9.86198 1.33398ZM9.03531 5.66732H6.96865C6.71531 5.66732 6.50198 5.45398 6.50198 5.20065C6.50198 4.94065 6.71531 4.73398 6.96865 4.73398H9.03531C9.28865 4.73398 9.50198 4.94065 9.50198 5.20065C9.50198 5.45398 9.28865 5.66732 9.03531 5.66732ZM9.55531 3.80732H6.44865C6.19531 3.80732 5.98865 3.59398 5.98865 3.34065C5.98865 3.08065 6.19531 2.87398 6.44865 2.87398H9.55531C9.80865 2.87398 10.0153 3.08065 10.0153 3.34065C10.0153 3.59398 9.80865 3.80732 9.55531 3.80732Z" fill="#003224"/>
</svg>
