<svg width="16" height="16" viewBox="0 0 16 16" fill="none" xmlns="http://www.w3.org/2000/svg">
<path d="M6.0026 1.33398C4.25594 1.33398 2.83594 2.75398 2.83594 4.50065C2.83594 6.21398 4.17594 7.60065 5.9226 7.66065C5.97594 7.65398 6.02927 7.65398 6.06927 7.66065C6.0826 7.66065 6.08927 7.66065 6.1026 7.66065C6.10927 7.66065 6.10927 7.66065 6.11594 7.66065C7.8226 7.60065 9.1626 6.21398 9.16927 4.50065C9.16927 2.75398 7.74927 1.33398 6.0026 1.33398Z" fill="white"/>
<path d="M9.38469 9.43391C7.52469 8.19391 4.49135 8.19391 2.61802 9.43391C1.77135 10.0006 1.30469 10.7672 1.30469 11.5872C1.30469 12.4072 1.77135 13.1672 2.61135 13.7272C3.54469 14.3539 4.77135 14.6672 5.99802 14.6672C7.22469 14.6672 8.45135 14.3539 9.38469 13.7272C10.2247 13.1606 10.6914 12.4006 10.6914 11.5739C10.6847 10.7539 10.2247 9.99391 9.38469 9.43391Z" fill="white"/>
<path d="M13.3263 4.89405C13.4329 6.18738 12.5129 7.32072 11.2396 7.47405C11.2329 7.47405 11.2329 7.47405 11.2263 7.47405H11.2062C11.1662 7.47405 11.1262 7.47405 11.0929 7.48738C10.4462 7.52072 9.85292 7.31405 9.40625 6.93405C10.0929 6.32072 10.4863 5.40072 10.4062 4.40072C10.3596 3.86072 10.1729 3.36738 9.89292 2.94738C10.1463 2.82072 10.4396 2.74072 10.7396 2.71405C12.0463 2.60072 13.2129 3.57405 13.3263 4.89405Z" fill="white"/>
<path d="M14.6615 11.0609C14.6081 11.7076 14.1948 12.2676 13.5015 12.6476C12.8348 13.0142 11.9948 13.1876 11.1615 13.1676C11.6415 12.7342 11.9215 12.1942 11.9748 11.6209C12.0415 10.7942 11.6481 10.0009 10.8615 9.36758C10.4148 9.01425 9.89479 8.73425 9.32812 8.52758C10.8015 8.10092 12.6548 8.38758 13.7948 9.30758C14.4081 9.80092 14.7215 10.4209 14.6615 11.0609Z" fill="white"/>
</svg>
