<svg width="48" height="47" viewBox="0 0 48 47" fill="none" xmlns="http://www.w3.org/2000/svg">
<rect x="0.609375" width="47" height="47" rx="7" fill="#E5F4F0"/>
<path d="M34.4446 18.7547C34.8308 19.3293 34.3556 20.0202 33.6633 20.0202H14.7759C14.2236 20.0202 13.7759 19.5725 13.7759 19.0202V16.9543C13.7759 14.311 15.9209 12.166 18.5642 12.166H21.0775C22.8434 12.166 23.3959 12.7402 24.1 13.6827L25.6167 15.6977C25.9525 16.1418 25.9959 16.196 26.6242 16.196H29.6467C31.6441 16.196 33.4068 17.2105 34.4446 18.7547Z" fill="#009169"/>
<path d="M35.4243 22.6412C35.4224 22.0902 34.9752 21.6445 34.4242 21.6445L14.7759 21.6449C14.2236 21.6449 13.7759 22.0926 13.7759 22.6449V28.0366C13.7759 31.2324 16.3759 33.8324 19.5717 33.8324H29.6467C32.8425 33.8324 35.4425 31.2324 35.4425 28.0366L35.4243 22.6412ZM27.3175 28.1449H25.4867V30.0407C25.4867 30.4849 25.1184 30.8532 24.6742 30.8532C24.2192 30.8532 23.8617 30.4849 23.8617 30.0407V28.1449H21.9009C21.4567 28.1449 21.0884 27.7766 21.0884 27.3324C21.0884 26.8882 21.4567 26.5199 21.9009 26.5199H23.8617V24.6241C23.8617 24.1799 24.2192 23.8116 24.6742 23.8116C25.1184 23.8116 25.4867 24.1799 25.4867 24.6241V26.5199H27.3175C27.7617 26.5199 28.13 26.8882 28.13 27.3324C28.13 27.7766 27.7617 28.1449 27.3175 28.1449Z" fill="#009169"/>
</svg>
