<svg width="48" height="47" viewBox="0 0 48 47" fill="none" xmlns="http://www.w3.org/2000/svg">
<rect x="0.609375" width="47" height="47" rx="7" fill="#009169"/>
<path d="M34.4449 18.7547C34.831 19.3293 34.3558 20.0202 33.6635 20.0202H14.7761C14.2238 20.0202 13.7761 19.5725 13.7761 19.0202V16.9543C13.7761 14.311 15.9211 12.166 18.5645 12.166H21.0778C22.8436 12.166 23.3961 12.7402 24.1003 13.6827L25.617 15.6977C25.9528 16.1418 25.9961 16.196 26.6245 16.196H29.647C31.6443 16.196 33.407 17.2105 34.4449 18.7547Z" fill="#E5F4F0"/>
<path d="M35.4245 22.6412C35.4226 22.0902 34.9755 21.6445 34.4245 21.6445L14.7761 21.6449C14.2238 21.6449 13.7761 22.0926 13.7761 22.6449V28.0366C13.7761 31.2324 16.3761 33.8324 19.572 33.8324H29.647C32.8428 33.8324 35.4428 31.2324 35.4428 28.0366L35.4245 22.6412ZM27.3178 28.1449H25.487V30.0407C25.487 30.4849 25.1186 30.8532 24.6745 30.8532C24.2195 30.8532 23.862 30.4849 23.862 30.0407V28.1449H21.9011C21.457 28.1449 21.0886 27.7766 21.0886 27.3324C21.0886 26.8882 21.457 26.5199 21.9011 26.5199H23.862V24.6241C23.862 24.1799 24.2195 23.8116 24.6745 23.8116C25.1186 23.8116 25.487 24.1799 25.487 24.6241V26.5199H27.3178C27.762 26.5199 28.1303 26.8882 28.1303 27.3324C28.1303 27.7766 27.762 28.1449 27.3178 28.1449Z" fill="#E5F4F0"/>
</svg>
