<svg width="48" height="47" viewBox="0 0 48 47" fill="none" xmlns="http://www.w3.org/2000/svg">
<path d="M0.609375 7C0.609375 3.13401 3.74338 0 7.60938 0H40.6094C44.4754 0 47.6094 3.13401 47.6094 7V40C47.6094 43.866 44.4754 47 40.6094 47H7.60937C3.74338 47 0.609375 43.866 0.609375 40V7Z" fill="#E5F4F0"/>
<path d="M32.8713 10H15.1287C12.8521 10 11 11.8521 11 14.1287V31.8713C11 34.1479 12.8521 36 15.1287 36H32.8713C35.1479 36 37 34.1479 37 31.8713V14.1287C37 11.8521 35.1479 10 32.8713 10ZM21.1262 23.5745L17.5921 27.1087C17.4334 27.2673 17.2255 27.3466 17.0176 27.3466C16.8096 27.3466 16.6017 27.2673 16.443 27.1086C16.1258 26.7913 16.1258 26.2769 16.443 25.9596L19.4027 23L16.443 20.0404C16.1257 19.7231 16.1257 19.2086 16.443 18.8913C16.7603 18.574 17.2748 18.574 17.5921 18.8913L21.1262 22.4255C21.2786 22.5779 21.3642 22.7845 21.3642 23C21.3642 23.2155 21.2786 23.4221 21.1262 23.5745ZM27.2393 23.5745L23.7051 27.1087C23.5465 27.2673 23.3385 27.3466 23.1306 27.3466C22.9227 27.3466 22.7148 27.2673 22.5561 27.1086C22.2388 26.7913 22.2388 26.2769 22.5561 25.9596L25.5157 23L22.5561 20.0404C22.2388 19.7231 22.2388 19.2086 22.5561 18.8913C22.8734 18.574 23.3878 18.574 23.7051 18.8913L27.2393 22.4255C27.3917 22.5779 27.4773 22.7845 27.4773 23C27.4773 23.2155 27.3917 23.4221 27.2393 23.5745ZM31.7949 26.5341C31.7949 26.9828 31.4311 27.3466 30.9824 27.3466C30.5337 27.3466 30.1699 26.9828 30.1699 26.5341V19.4658C30.1699 19.0171 30.5337 18.6533 30.9824 18.6533C31.4311 18.6533 31.7949 19.0171 31.7949 19.4658V26.5341Z" fill="#009169"/>
</svg>
